<svg width="41" height="41" viewBox="0 0 41 41" fill="none" xmlns="http://www.w3.org/2000/svg">
<path d="M0 1.92188C0 0.856836 0.768146 0 1.72294 0H4.98936C6.56872 0 7.96862 1.025 8.6219 2.5625H38.1273C40.0154 2.5625 41.3937 4.56445 40.8984 6.59844L37.955 18.7943C37.3448 21.3088 35.2988 23.0625 32.9657 23.0625H12.2544L12.6421 25.3447C12.8 26.2496 13.5108 26.9062 14.3363 26.9062H35.0332C35.988 26.9062 36.7561 27.7631 36.7561 28.8281C36.7561 29.8932 35.988 30.75 35.0332 30.75H14.3363C11.8524 30.75 9.72028 28.7801 9.26082 26.0654L5.55649 4.36426C5.50624 4.05996 5.26934 3.84375 4.98936 3.84375H1.72294C0.768146 3.84375 0 2.98691 0 1.92188ZM9.18903 37.1562C9.18903 36.6515 9.27816 36.1517 9.45134 35.6853C9.62451 35.219 9.87833 34.7952 10.1983 34.4383C10.5183 34.0814 10.8982 33.7983 11.3162 33.6051C11.7343 33.4119 12.1824 33.3125 12.6349 33.3125C13.0874 33.3125 13.5355 33.4119 13.9536 33.6051C14.3717 33.7983 14.7516 34.0814 15.0715 34.4383C15.3915 34.7952 15.6453 35.219 15.8185 35.6853C15.9917 36.1517 16.0808 36.6515 16.0808 37.1562C16.0808 37.661 15.9917 38.1608 15.8185 38.6272C15.6453 39.0935 15.3915 39.5173 15.0715 39.8742C14.7516 40.2311 14.3717 40.5142 13.9536 40.7074C13.5355 40.9006 13.0874 41 12.6349 41C12.1824 41 11.7343 40.9006 11.3162 40.7074C10.8982 40.5142 10.5183 40.2311 10.1983 39.8742C9.87833 39.5173 9.62451 39.0935 9.45134 38.6272C9.27816 38.1608 9.18903 37.661 9.18903 37.1562ZM33.3102 33.3125C34.2242 33.3125 35.1006 33.7175 35.7469 34.4383C36.3931 35.1591 36.7561 36.1368 36.7561 37.1562C36.7561 38.1757 36.3931 39.1534 35.7469 39.8742C35.1006 40.595 34.2242 41 33.3102 41C32.3963 41 31.5199 40.595 30.8736 39.8742C30.2274 39.1534 29.8644 38.1757 29.8644 37.1562C29.8644 36.1368 30.2274 35.1591 30.8736 34.4383C31.5199 33.7175 32.3963 33.3125 33.3102 33.3125ZM18.0909 12.8125C18.0909 13.6934 18.737 14.4141 19.5267 14.4141H22.6854V17.9375C22.6854 18.8184 23.3315 19.5391 24.1212 19.5391C24.9109 19.5391 25.557 18.8184 25.557 17.9375V14.4141H28.7157C29.5054 14.4141 30.1515 13.6934 30.1515 12.8125C30.1515 11.9316 29.5054 11.2109 28.7157 11.2109H25.557V7.6875C25.557 6.80664 24.9109 6.08594 24.1212 6.08594C23.3315 6.08594 22.6854 6.80664 22.6854 7.6875V11.2109H19.5267C18.737 11.2109 18.0909 11.9316 18.0909 12.8125Z" fill="#F5F5F5"/>
</svg>
