<svg width="35" height="35" viewBox="0 0 35 35" fill="none" xmlns="http://www.w3.org/2000/svg">
<path d="M33.9642 5.97728C35.3307 4.61073 35.3307 2.39146 33.9642 1.02491C32.5976 -0.341637 30.3783 -0.341637 29.0118 1.02491L17.5 12.5476L5.97728 1.03584C4.61073 -0.330705 2.39146 -0.330705 1.02491 1.03584C-0.341637 2.40239 -0.341637 4.62166 1.02491 5.98821L12.5476 17.5L1.03584 29.0227C-0.330704 30.3893 -0.330704 32.6085 1.03584 33.9751C2.40239 35.3416 4.62166 35.3416 5.98821 33.9751L17.5 22.4524L29.0227 33.9642C30.3893 35.3307 32.6085 35.3307 33.9751 33.9642C35.3416 32.5976 35.3416 30.3783 33.9751 29.0118L22.4524 17.5L33.9642 5.97728Z" fill="#F6F6F6"/>
</svg>
