<svg width="185" height="41" viewBox="0 0 185 41" fill="none" xmlns="http://www.w3.org/2000/svg">
<path d="M74.9047 22.0505L89.7277 35.9211C90.343 36.4966 91.1551 36.8173 92 36.8173C92.8449 36.8173 93.657 36.4966 94.2723 35.9211L109.095 22.0505C111.589 19.7237 113 16.4596 113 13.0474V12.5706C113 6.82337 108.857 1.92305 103.205 0.977516C99.4648 0.352644 95.6586 1.57772 92.9844 4.2581L92 5.24474L91.0156 4.2581C88.3414 1.57772 84.5352 0.352644 80.7945 0.977516C75.1426 1.92305 71 6.82337 71 12.5706V13.0474C71 16.4596 72.4109 19.7237 74.9047 22.0505Z" fill="#F5F5F5"/>
<path d="M145 3.96405C145 2.97694 145.749 2.1828 146.681 2.1828H149.868C151.409 2.1828 152.774 3.1328 153.412 4.5578H182.197C184.039 4.5578 185.384 6.41327 184.901 8.29843L182.029 19.6019C181.434 21.9324 179.438 23.5578 177.162 23.5578H156.956L157.334 25.673C157.488 26.5117 158.181 27.1203 158.987 27.1203H179.179C180.11 27.1203 180.86 27.9144 180.86 28.9016C180.86 29.8887 180.11 30.6828 179.179 30.6828H158.987C156.563 30.6828 154.483 28.857 154.035 26.341L150.421 6.22772C150.372 5.94569 150.141 5.7453 149.868 5.7453H146.681C145.749 5.7453 145 4.95116 145 3.96405ZM153.965 36.6203C153.965 36.1525 154.052 35.6892 154.221 35.257C154.39 34.8248 154.637 34.432 154.95 34.1012C155.262 33.7704 155.632 33.508 156.04 33.329C156.448 33.1499 156.885 33.0578 157.327 33.0578C157.768 33.0578 158.205 33.1499 158.613 33.329C159.021 33.508 159.392 33.7704 159.704 34.1012C160.016 34.432 160.264 34.8248 160.433 35.257C160.602 35.6892 160.689 36.1525 160.689 36.6203C160.689 37.0881 160.602 37.5514 160.433 37.9836C160.264 38.4158 160.016 38.8086 159.704 39.1394C159.392 39.4702 159.021 39.7326 158.613 39.9116C158.205 40.0907 157.768 40.1828 157.327 40.1828C156.885 40.1828 156.448 40.0907 156.04 39.9116C155.632 39.7326 155.262 39.4702 154.95 39.1394C154.637 38.8086 154.39 38.4158 154.221 37.9836C154.052 37.5514 153.965 37.0881 153.965 36.6203ZM177.498 33.0578C178.389 33.0578 179.245 33.4331 179.875 34.1012C180.505 34.7693 180.86 35.6755 180.86 36.6203C180.86 37.5651 180.505 38.4713 179.875 39.1394C179.245 39.8075 178.389 40.1828 177.498 40.1828C176.606 40.1828 175.751 39.8075 175.121 39.1394C174.49 38.4713 174.136 37.5651 174.136 36.6203C174.136 35.6755 174.49 34.7693 175.121 34.1012C175.751 33.4331 176.606 33.0578 177.498 33.0578Z" fill="#F5F5F5"/>
<path d="M31.689 17.2118C31.689 20.5284 30.554 23.592 28.642 26.0775L38.2859 35.2323C39.238 36.1354 39.238 37.6022 38.2859 38.5054C37.3337 39.4086 35.7873 39.4086 34.8351 38.5054L25.1913 29.3507C22.5708 31.1715 19.341 32.2409 15.8445 32.2409C7.09195 32.2409 0 25.514 0 17.2118C0 8.90974 7.09195 2.1828 15.8445 2.1828C24.5971 2.1828 31.689 8.90974 31.689 17.2118ZM15.8445 27.6166C17.285 27.6166 18.7114 27.3474 20.0423 26.8246C21.3731 26.3017 22.5824 25.5353 23.601 24.5691C24.6196 23.6029 25.4276 22.4559 25.9788 21.1936C26.5301 19.9312 26.8138 18.5782 26.8138 17.2118C26.8138 15.8455 26.5301 14.4925 25.9788 13.2301C25.4276 11.9678 24.6196 10.8208 23.601 9.8546C22.5824 8.88843 21.3731 8.12202 20.0423 7.59914C18.7114 7.07625 17.285 6.80712 15.8445 6.80712C14.404 6.80712 12.9776 7.07625 11.6468 7.59914C10.3159 8.12202 9.10666 8.88843 8.08807 9.8546C7.06947 10.8208 6.26148 11.9678 5.71022 13.2301C5.15897 14.4925 4.87524 15.8455 4.87524 17.2118C4.87524 18.5782 5.15897 19.9312 5.71022 21.1936C6.26148 22.4559 7.06947 23.6029 8.08807 24.5691C9.10666 25.5353 10.3159 26.3017 11.6468 26.8246C12.9776 27.3474 14.404 27.6166 15.8445 27.6166Z" fill="#F5F5F5"/>
</svg>
