<svg width="24" height="23" viewBox="0 0 24 23" fill="none" xmlns="http://www.w3.org/2000/svg">
<path d="M0 1.07812C0 0.480664 0.449646 0 1.00855 0H2.9206C3.84511 0 4.66456 0.575 5.04697 1.4375H22.3184C23.4236 1.4375 24.2305 2.56055 23.9405 3.70156L22.2176 10.5432C21.8604 11.9537 20.6627 12.9375 19.297 12.9375H7.17333L7.40026 14.2178C7.49271 14.7254 7.90873 15.0938 8.392 15.0938H20.5072C21.0661 15.0938 21.5158 15.5744 21.5158 16.1719C21.5158 16.7693 21.0661 17.25 20.5072 17.25H8.392C6.938 17.25 5.68992 16.1449 5.42097 14.6221L3.25258 2.44824C3.22317 2.27754 3.08449 2.15625 2.9206 2.15625H1.00855C0.449646 2.15625 0 1.67559 0 1.07812ZM5.37895 20.8438C5.37895 20.5606 5.43112 20.2802 5.53249 20.0186C5.63386 19.757 5.78244 19.5193 5.96974 19.319C6.15705 19.1188 6.37941 18.96 6.62414 18.8516C6.86887 18.7433 7.13116 18.6875 7.39605 18.6875C7.66094 18.6875 7.92324 18.7433 8.16796 18.8516C8.41269 18.96 8.63506 19.1188 8.82236 19.319C9.00967 19.5193 9.15825 19.757 9.25961 20.0186C9.36098 20.2802 9.41316 20.5606 9.41316 20.8438C9.41316 21.1269 9.36098 21.4073 9.25961 21.6689C9.15825 21.9305 9.00967 22.1682 8.82236 22.3685C8.63506 22.5687 8.41269 22.7275 8.16796 22.8359C7.92324 22.9442 7.66094 23 7.39605 23C7.13116 23 6.86887 22.9442 6.62414 22.8359C6.37941 22.7275 6.15705 22.5687 5.96974 22.3685C5.78244 22.1682 5.63386 21.9305 5.53249 21.6689C5.43112 21.4073 5.37895 21.1269 5.37895 20.8438ZM19.4987 18.6875C20.0337 18.6875 20.5467 18.9147 20.925 19.319C21.3033 19.7234 21.5158 20.2719 21.5158 20.8438C21.5158 21.4156 21.3033 21.9641 20.925 22.3685C20.5467 22.7728 20.0337 23 19.4987 23C18.9637 23 18.4507 22.7728 18.0724 22.3685C17.6941 21.9641 17.4816 21.4156 17.4816 20.8438C17.4816 20.2719 17.6941 19.7234 18.0724 19.319C18.4507 18.9147 18.9637 18.6875 19.4987 18.6875Z" fill="#F5F5F5"/>
</svg>
