<svg width="39" height="38" viewBox="0 0 39 38" fill="none" xmlns="http://www.w3.org/2000/svg">
<path d="M31.689 15.2119C31.689 18.5284 30.554 21.592 28.642 24.0776L38.2859 33.2323C39.238 34.1355 39.238 35.6023 38.2859 36.5055C37.3337 37.4087 35.7873 37.4087 34.8351 36.5055L25.1913 27.3508C22.5708 29.1716 19.341 30.241 15.8445 30.241C7.09195 30.241 0 23.514 0 15.2119C0 6.90981 7.09195 0.182861 15.8445 0.182861C24.5971 0.182861 31.689 6.90981 31.689 15.2119ZM15.8445 25.6166C17.285 25.6166 18.7114 25.3475 20.0423 24.8246C21.3731 24.3017 22.5824 23.5353 23.601 22.5692C24.6196 21.603 25.4276 20.456 25.9788 19.1936C26.5301 17.9313 26.8138 16.5783 26.8138 15.2119C26.8138 13.8455 26.5301 12.4926 25.9788 11.2302C25.4276 9.96783 24.6196 8.82083 23.601 7.85466C22.5824 6.88849 21.3731 6.12208 20.0423 5.5992C18.7114 5.07631 17.285 4.80718 15.8445 4.80718C14.404 4.80718 12.9776 5.07631 11.6468 5.5992C10.3159 6.12208 9.10666 6.88849 8.08807 7.85466C7.06947 8.82083 6.26148 9.96783 5.71022 11.2302C5.15897 12.4926 4.87524 13.8455 4.87524 15.2119C4.87524 16.5783 5.15897 17.9313 5.71022 19.1936C6.26148 20.456 7.06947 21.603 8.08807 22.5692C9.10666 23.5353 10.3159 24.3017 11.6468 24.8246C12.9776 25.3475 14.404 25.6166 15.8445 25.6166Z" fill="#F5F5F5"/>
</svg>
