<svg width="189" height="38" viewBox="0 0 189 38" fill="none" xmlns="http://www.w3.org/2000/svg">
<g clip-path="url(#clip0_52_438)">
<path d="M34.5424 14.446C34.4434 14.1546 34.2613 13.8986 34.0186 13.7096C33.7758 13.5205 33.483 13.4067 33.1763 13.3821L24.2039 12.6692L20.3212 4.07449C20.1976 3.79767 19.9965 3.56256 19.7422 3.39752C19.4878 3.23248 19.1912 3.14458 18.888 3.14441C18.5848 3.14424 18.2881 3.23182 18.0336 3.39658C17.7791 3.56134 17.5777 3.79624 17.4537 4.07292L13.5711 12.6692L4.59871 13.3821C4.29725 13.406 4.00905 13.5162 3.7686 13.6996C3.52814 13.883 3.34561 14.1318 3.24284 14.4162C3.14007 14.7006 3.12141 15.0086 3.1891 15.3033C3.25679 15.598 3.40795 15.867 3.62451 16.0781L10.255 22.5418L7.91004 32.6961C7.83884 33.0035 7.86166 33.3252 7.97554 33.6194C8.08943 33.9136 8.28912 34.1669 8.5487 34.3462C8.80829 34.5255 9.11578 34.6227 9.43128 34.6251C9.74678 34.6275 10.0557 34.535 10.318 34.3597L18.8875 28.6467L27.457 34.3597C27.7251 34.5377 28.0412 34.6293 28.3629 34.6222C28.6846 34.6152 28.9965 34.5098 29.2565 34.3202C29.5165 34.1306 29.7122 33.866 29.8174 33.5618C29.9225 33.2577 29.9319 32.9287 29.8445 32.619L26.9659 22.5465L34.1048 16.1221C34.5723 15.7004 34.7438 15.0425 34.5424 14.446Z" fill="#FDD812"/>
<path d="M72.3153 14.4458C72.2164 14.1544 72.0343 13.8984 71.7915 13.7093C71.5488 13.5202 71.2559 13.4064 70.9492 13.3819L61.9768 12.6689L58.0942 4.07425C57.9705 3.79743 57.7694 3.56231 57.5151 3.39728C57.2608 3.23224 56.9641 3.14433 56.6609 3.14417C56.3578 3.144 56.061 3.23158 55.8065 3.39634C55.552 3.5611 55.3506 3.79599 55.2267 4.07267L51.344 12.6689L42.3717 13.3819C42.0702 13.4057 41.782 13.516 41.5415 13.6994C41.3011 13.8827 41.1186 14.1315 41.0158 14.4159C40.913 14.7003 40.8944 15.0083 40.962 15.303C41.0297 15.5978 41.1809 15.8668 41.3975 16.0778L48.028 22.5415L45.683 32.6959C45.6118 33.0033 45.6346 33.3249 45.7485 33.6192C45.8624 33.9134 46.0621 34.1666 46.3217 34.3459C46.5812 34.5253 46.8887 34.6224 47.2042 34.6249C47.5197 34.6273 47.8287 34.5348 48.0909 34.3594L56.6604 28.6464L65.2299 34.3594C65.498 34.5374 65.8142 34.629 66.1359 34.622C66.4576 34.6149 66.7694 34.5095 67.0294 34.32C67.2895 34.1304 67.4852 33.8657 67.5903 33.5616C67.6954 33.2575 67.7049 32.9284 67.6174 32.6188L64.7389 22.5463L71.8778 16.1219C72.3452 15.7001 72.5168 15.0423 72.3153 14.4458Z" fill="#FDD812"/>
<path d="M110.086 14.4458C109.987 14.1544 109.805 13.8984 109.562 13.7093C109.319 13.5202 109.026 13.4064 108.719 13.3819L99.7471 12.6689L95.8645 4.07425C95.7408 3.79743 95.5397 3.56231 95.2854 3.39728C95.031 3.23224 94.7344 3.14433 94.4312 3.14417C94.128 3.144 93.8313 3.23158 93.5768 3.39634C93.3223 3.5611 93.1209 3.79599 92.9969 4.07267L89.1143 12.6689L80.1419 13.3819C79.8405 13.4057 79.5523 13.516 79.3118 13.6994C79.0714 13.8827 78.8888 14.1315 78.7861 14.4159C78.6833 14.7003 78.6646 15.0083 78.7323 15.303C78.8 15.5978 78.9512 15.8668 79.1677 16.0778L85.7983 22.5415L83.4533 32.6959C83.382 33.0033 83.4049 33.3249 83.5188 33.6192C83.6326 33.9134 83.8323 34.1666 84.0919 34.3459C84.3515 34.5253 84.659 34.6224 84.9745 34.6249C85.29 34.6273 85.5989 34.5348 85.8612 34.3594L94.4307 28.6464L103 34.3594C103.268 34.5374 103.584 34.629 103.906 34.622C104.228 34.6149 104.54 34.5095 104.8 34.32C105.06 34.1304 105.255 33.8657 105.361 33.5616C105.466 33.2575 105.475 32.9284 105.388 32.6188L102.509 22.5463L109.648 16.1219C110.115 15.7001 110.287 15.0423 110.086 14.4458Z" fill="#FDD812"/>
<path d="M147.858 14.4458C147.759 14.1544 147.577 13.8984 147.334 13.7093C147.092 13.5202 146.799 13.4064 146.492 13.3819L137.52 12.6689L133.637 4.07425C133.514 3.79743 133.312 3.56231 133.058 3.39728C132.804 3.23224 132.507 3.14433 132.204 3.14417C131.901 3.144 131.604 3.23158 131.349 3.39634C131.095 3.5611 130.894 3.79599 130.77 4.07267L126.887 12.6689L117.915 13.3819C117.613 13.4057 117.325 13.516 117.085 13.6994C116.844 13.8827 116.662 14.1315 116.559 14.4159C116.456 14.7003 116.437 15.0083 116.505 15.303C116.573 15.5978 116.724 15.8668 116.94 16.0778L123.571 22.5415L121.226 32.6959C121.155 33.0033 121.178 33.3249 121.291 33.6192C121.405 33.9134 121.605 34.1666 121.865 34.3459C122.124 34.5253 122.432 34.6224 122.747 34.6249C123.063 34.6273 123.372 34.5348 123.634 34.3594L132.203 28.6464L140.773 34.3594C141.041 34.5374 141.357 34.629 141.679 34.622C142.001 34.6149 142.312 34.5095 142.572 34.32C142.832 34.1304 143.028 33.8657 143.133 33.5616C143.238 33.2575 143.248 32.9284 143.16 32.6188L140.282 22.5463L147.421 16.1219C147.888 15.7001 148.06 15.0423 147.858 14.4458Z" fill="#FDD812"/>
<path d="M191.543 14.446C191.444 14.1546 191.262 13.8986 191.019 13.7096C190.776 13.5205 190.483 13.4067 190.177 13.3821L181.204 12.6692L177.322 4.07449C177.198 3.79767 176.997 3.56256 176.743 3.39752C176.488 3.23248 176.192 3.14458 175.888 3.14441C175.585 3.14424 175.289 3.23182 175.034 3.39658C174.78 3.56134 174.578 3.79624 174.454 4.07292L170.572 12.6692L161.599 13.3821C161.298 13.406 161.01 13.5162 160.769 13.6996C160.529 13.883 160.346 14.1318 160.243 14.4162C160.141 14.7006 160.122 15.0086 160.19 15.3033C160.257 15.598 160.408 15.867 160.625 16.0781L167.256 22.5418L164.911 32.6961C164.839 33.0035 164.862 33.3252 164.976 33.6194C165.09 33.9136 165.29 34.1669 165.549 34.3462C165.809 34.5255 166.116 34.6227 166.432 34.6251C166.747 34.6275 167.056 34.535 167.318 34.3597L175.888 28.6467L184.457 34.3597C184.726 34.5377 185.042 34.6293 185.363 34.6222C185.685 34.6152 185.997 34.5098 186.257 34.3202C186.517 34.1306 186.713 33.866 186.818 33.5618C186.923 33.2577 186.932 32.9287 186.845 32.619L183.966 22.5465L191.105 16.1221C191.573 15.7004 191.744 15.0425 191.543 14.446Z" fill="#FDD812"/>
</g>
<defs>
<clipPath id="clip0_52_438">
<rect width="188.859" height="37.7719" fill="white"/>
</clipPath>
</defs>
</svg>
