<svg width="96" height="13" viewBox="0 0 96 13" fill="none" xmlns="http://www.w3.org/2000/svg">
<path d="M8.32678 1.00241C8.17603 0.740963 7.85748 0.574585 7.50763 0.574585C7.15779 0.574585 6.84207 0.740963 6.68848 1.00241L4.85962 4.14695L0.775247 4.65084C0.433934 4.69362 0.149507 4.89328 0.0442695 5.16661C-0.0609685 5.43995 0.0243595 5.7418 0.268967 5.94383L3.2327 8.39434L2.533 11.8574C2.47612 12.1426 2.61833 12.4326 2.89992 12.6013C3.1815 12.7701 3.5541 12.7915 3.86128 12.656L7.51048 11.0279L11.1597 12.656C11.4669 12.7915 11.8395 12.7725 12.121 12.6013C12.4026 12.4302 12.5448 12.1426 12.4879 11.8574L11.7854 8.39434L14.7491 5.94383C14.9937 5.7418 15.0819 5.43995 14.9738 5.16661C14.8658 4.89328 14.5842 4.69362 14.2429 4.65084L10.1556 4.14695L8.32678 1.00241Z" fill="#F5F5F5"/>
<path d="M28.3505 1.00241C28.1997 0.740963 27.8812 0.574585 27.5313 0.574585C27.1815 0.574585 26.8658 0.740963 26.7122 1.00241L24.8833 4.14695L20.7989 4.65084C20.4576 4.69362 20.1732 4.89328 20.068 5.16661C19.9627 5.43995 20.048 5.7418 20.2926 5.94383L23.2564 8.39434L22.5567 11.8574C22.4998 12.1426 22.642 12.4326 22.9236 12.6013C23.2052 12.7701 23.5778 12.7915 23.885 12.656L27.5342 11.0279L31.1834 12.656C31.4905 12.7915 31.8631 12.7725 32.1447 12.6013C32.4263 12.4302 32.5685 12.1426 32.5116 11.8574L31.8091 8.39434L34.7728 5.94383C35.0174 5.7418 35.1056 5.43995 34.9975 5.16661C34.8894 4.89328 34.6079 4.69362 34.2665 4.65084L30.1793 4.14695L28.3505 1.00241Z" fill="#F5F5F5"/>
<path d="M88.4213 1.00241C88.2705 0.740963 87.952 0.574585 87.6021 0.574585C87.2523 0.574585 86.9366 0.740963 86.783 1.00241L84.9541 4.14695L80.8697 4.65084C80.5284 4.69362 80.244 4.89328 80.1388 5.16661C80.0335 5.43995 80.1188 5.7418 80.3634 5.94383L83.3272 8.39434L82.6275 11.8574C82.5706 12.1426 82.7128 12.4326 82.9944 12.6013C83.276 12.7701 83.6486 12.7915 83.9558 12.656L87.605 11.0279L91.2542 12.656C91.5613 12.7915 91.9339 12.7725 92.2155 12.6013C92.4971 12.4302 92.6393 12.1426 92.5824 11.8574L91.8799 8.39434L94.8436 5.94383C95.0882 5.7418 95.1764 5.43995 95.0683 5.16661C94.9602 4.89328 94.6787 4.69362 94.3373 4.65084L90.2501 4.14695L88.4213 1.00241Z" fill="#F5F5F5"/>
<path d="M68.3978 1.00241C68.2471 0.740963 67.9285 0.574585 67.5787 0.574585C67.2288 0.574585 66.9131 0.740963 66.7595 1.00241L64.9307 4.14695L60.8463 4.65084C60.505 4.69362 60.2206 4.89328 60.1153 5.16661C60.0101 5.43995 60.0954 5.7418 60.34 5.94383L63.3037 8.39434L62.604 11.8574C62.5472 12.1426 62.6894 12.4326 62.971 12.6013C63.2525 12.7701 63.6251 12.7915 63.9323 12.656L67.5815 11.0279L71.2307 12.656C71.5379 12.7915 71.9105 12.7725 72.1921 12.6013C72.4737 12.4302 72.6159 12.1426 72.559 11.8574L71.8565 8.39434L74.8202 5.94383C75.0648 5.7418 75.153 5.43995 75.0449 5.16661C74.9368 4.89328 74.6552 4.69362 74.3139 4.65084L70.2267 4.14695L68.3978 1.00241Z" fill="#F5F5F5"/>
<path d="M48.3741 1.00241C48.2234 0.740963 47.9048 0.574585 47.555 0.574585C47.2051 0.574585 46.8894 0.740963 46.7358 1.00241L44.907 4.14695L40.8226 4.65084C40.4813 4.69362 40.1969 4.89328 40.0916 5.16661C39.9864 5.43995 40.0717 5.7418 40.3163 5.94383L43.2801 8.39434L42.5804 11.8574C42.5235 12.1426 42.6657 12.4326 42.9473 12.6013C43.2289 12.7701 43.6015 12.7915 43.9086 12.656L47.5578 11.0279L51.207 12.656C51.5142 12.7915 51.8868 12.7725 52.1684 12.6013C52.45 12.4302 52.5922 12.1426 52.5353 11.8574L51.8328 8.39434L54.7965 5.94383C55.0411 5.7418 55.1293 5.43995 55.0212 5.16661C54.9131 4.89328 54.6315 4.69362 54.2902 4.65084L50.203 4.14695L48.3741 1.00241Z" fill="#F5F5F5"/>
</svg>
