<svg width="86" height="32" viewBox="0 0 86 32" fill="none" xmlns="http://www.w3.org/2000/svg">
<path d="M18.1176 1C13.0765 1 9.03988 3.3 6.10131 6.0375C3.18147 8.75 1.22866 12 0.305294 14.2312C0.0994073 14.725 0.0994073 15.275 0.305294 15.7687C1.22866 18 3.18147 21.25 6.10131 23.9625C9.03988 26.7 13.0765 29 18.1176 29C23.1587 29 27.1953 26.7 30.1339 23.9625C33.0537 21.2437 35.0065 18 35.9362 15.7687C36.142 15.275 36.142 14.725 35.9362 14.2312C35.0065 12 33.0537 8.75 30.1339 6.0375C27.1953 3.3 23.1587 1 18.1176 1ZM9.13346 15C9.13346 12.6131 10.08 10.3239 11.7649 8.63604C13.4497 6.94821 15.7349 6 18.1176 6C20.5003 6 22.7855 6.94821 24.4704 8.63604C26.1552 10.3239 27.1017 12.6131 27.1017 15C27.1017 17.3869 26.1552 19.6761 24.4704 21.364C22.7855 23.0518 20.5003 24 18.1176 24C15.7349 24 13.4497 23.0518 11.7649 21.364C10.08 19.6761 9.13346 17.3869 9.13346 15ZM18.1176 11C18.1176 13.2063 16.327 15 14.1247 15C13.6817 15 13.2574 14.925 12.8581 14.7937C12.515 14.6812 12.1157 14.8938 12.1282 15.2563C12.1469 15.6875 12.2093 16.1187 12.3278 16.55C13.1826 19.75 16.4705 21.65 19.6649 20.7938C22.8592 19.9375 24.7559 16.6438 23.9011 13.4438C23.2086 10.85 20.9189 9.10625 18.3734 9C18.0115 8.9875 17.7994 9.38125 17.9117 9.73125C18.0427 10.1312 18.1176 10.5562 18.1176 11Z" fill="#D7D7D7"/>
<path d="M48.4914 0.319101C47.8425 -0.193399 46.9004 -0.0746487 46.3889 0.575351C45.8773 1.22535 45.9958 2.1691 46.6447 2.6816L83.5795 31.6816C84.2283 32.1941 85.1704 32.0754 85.682 31.4254C86.1936 30.7754 86.0751 29.8316 85.4262 29.3191L78.8628 24.1691C81.3334 21.6316 83.0055 18.7878 83.8477 16.7691C84.0536 16.2754 84.0536 15.7254 83.8477 15.2316C82.9181 13.0004 80.9653 9.75035 78.0455 7.03785C75.1131 4.30035 71.0765 2.00035 66.0354 2.00035C61.7804 2.00035 58.2367 3.6441 55.4728 5.80035L48.4914 0.319101ZM59.9898 9.3441C61.5808 7.88785 63.7083 7.00035 66.0354 7.00035C70.9954 7.00035 75.0196 11.0316 75.0196 16.0004C75.0196 17.5566 74.6265 19.0191 73.934 20.2941L71.5257 18.4066C72.0498 17.2004 72.1871 15.8191 71.8252 14.4504C71.1327 11.8566 68.843 10.1129 66.2975 10.0066C65.9356 9.9941 65.7235 10.3879 65.8358 10.7379C65.9668 11.1379 66.0417 11.5629 66.0417 12.0066C66.0417 12.6441 65.8919 13.2441 65.6299 13.7754L59.9961 9.35035L59.9898 9.3441ZM69.3421 24.3691C68.3189 24.7754 67.2021 25.0004 66.0354 25.0004C61.0754 25.0004 57.0513 20.9691 57.0513 16.0004C57.0513 15.5691 57.0825 15.1504 57.1386 14.7379L51.2553 10.0941C49.8328 11.9504 48.8158 13.8004 48.2231 15.2316C48.0172 15.7254 48.0172 16.2754 48.2231 16.7691C49.1527 19.0004 51.1055 22.2504 54.0254 24.9629C56.9577 27.7003 60.9943 30.0004 66.0354 30.0004C69.0177 30.0004 71.6443 29.1941 73.909 27.9691L69.3421 24.3691Z" fill="#D7D7D7"/>
</svg>
