<svg width="45" height="37" viewBox="0 0 45 37" fill="none" xmlns="http://www.w3.org/2000/svg">
<path d="M4.18359 21.8231L20.0654 36.0789C20.7246 36.6704 21.5947 37 22.5 37C23.4053 37 24.2754 36.6704 24.9346 36.0789L40.8164 21.8231C43.4883 19.4316 45 16.0768 45 12.5699V12.0798C45 6.17294 40.5615 1.1365 34.5059 0.164707C30.498 -0.477523 26.4199 0.781587 23.5547 3.53642L22.5 4.55046L21.4453 3.53642C18.5801 0.781587 14.502 -0.477523 10.4941 0.164707C4.43848 1.1365 0 6.17294 0 12.0798V12.5699C0 16.0768 1.51172 19.4316 4.18359 21.8231Z" fill="white"/>
</svg>
